<mxfile host="app.diagrams.net" agent="Mozilla/5.0 (Windows NT 10.0; Win64; x64) AppleWebKit/537.36 (KHTML, like Gecko) Chrome/132.0.0.0 Safari/537.36" version="26.0.6">
  <diagram name="หน้า-1" id="XcP_1oXxoeok4-g8e9k6">
    <mxGraphModel dx="1000" dy="542" grid="1" gridSize="10" guides="1" tooltips="1" connect="1" arrows="1" fold="1" page="1" pageScale="1" pageWidth="827" pageHeight="1169" math="0" shadow="0">
      <root>
        <mxCell id="0" />
        <mxCell id="1" parent="0" />
        <mxCell id="chskgfsqUM1hCWHKNclf-1" value="&lt;p style=&quot;margin:0px;margin-top:4px;text-align:center;&quot;&gt;&lt;b&gt;Person&lt;/b&gt;&lt;/p&gt;&lt;hr size=&quot;1&quot; style=&quot;border-style:solid;&quot;&gt;&lt;p style=&quot;margin:0px;margin-left:4px;&quot;&gt;+ id , name , gender : String&lt;/p&gt;&lt;hr size=&quot;1&quot; style=&quot;border-style:solid;&quot;&gt;&lt;p style=&quot;margin:0px;margin-left:4px;&quot;&gt;+ getId () : String&lt;/p&gt;&lt;p style=&quot;margin:0px;margin-left:4px;&quot;&gt;+ getName () : String&lt;/p&gt;&lt;p style=&quot;margin:0px;margin-left:4px;&quot;&gt;+ getGender () : String&lt;/p&gt;" style="verticalAlign=top;align=left;overflow=fill;html=1;whiteSpace=wrap;" vertex="1" parent="1">
          <mxGeometry x="380" y="710" width="160" height="120" as="geometry" />
        </mxCell>
        <mxCell id="chskgfsqUM1hCWHKNclf-2" value="&lt;p style=&quot;margin:0px;margin-top:4px;text-align:center;&quot;&gt;&lt;b&gt;Manager&lt;/b&gt;&lt;/p&gt;&lt;hr size=&quot;1&quot; style=&quot;border-style:solid;&quot;&gt;&lt;p style=&quot;margin:0px;margin-left:4px;&quot;&gt;+ login , password : String&lt;/p&gt;&lt;hr size=&quot;1&quot; style=&quot;border-style:solid;&quot;&gt;&lt;p style=&quot;margin:0px;margin-left:4px;&quot;&gt;+ getLogin () : String&lt;/p&gt;&lt;p style=&quot;margin:0px;margin-left:4px;&quot;&gt;+ getPassword() : String&lt;/p&gt;" style="verticalAlign=top;align=left;overflow=fill;html=1;whiteSpace=wrap;" vertex="1" parent="1">
          <mxGeometry x="730" y="710" width="160" height="90" as="geometry" />
        </mxCell>
        <mxCell id="chskgfsqUM1hCWHKNclf-3" value="&lt;p style=&quot;margin:0px;margin-top:4px;text-align:center;&quot;&gt;&lt;b&gt;Account&lt;/b&gt;&lt;/p&gt;&lt;hr size=&quot;1&quot; style=&quot;border-style:solid;&quot;&gt;&lt;p style=&quot;margin:0px;margin-left:4px;&quot;&gt;+ login,password : String&lt;/p&gt;&lt;p style=&quot;margin:0px;margin-left:4px;&quot;&gt;+ balance : double&amp;nbsp;&lt;/p&gt;&lt;hr size=&quot;1&quot; style=&quot;border-style:solid;&quot;&gt;&lt;p style=&quot;margin:0px;margin-left:4px;&quot;&gt;+ getLogin() : String&amp;nbsp;&lt;/p&gt;&lt;p style=&quot;margin:0px;margin-left:4px;&quot;&gt;+ getPassword () : String&amp;nbsp;&lt;/p&gt;&lt;p style=&quot;margin:0px;margin-left:4px;&quot;&gt;+ checkBalance() : Void&amp;nbsp;&lt;/p&gt;&lt;p style=&quot;margin:0px;margin-left:4px;&quot;&gt;+ withdraw (double amount) : Void&lt;/p&gt;&lt;p style=&quot;margin:0px;margin-left:4px;&quot;&gt;+ deposit(double amount) : Void&lt;/p&gt;&lt;p style=&quot;margin:0px;margin-left:4px;&quot;&gt;+ transfer (Account target , double amount) : Void&lt;/p&gt;" style="verticalAlign=top;align=left;overflow=fill;html=1;whiteSpace=wrap;" vertex="1" parent="1">
          <mxGeometry x="20" y="796" width="280" height="170" as="geometry" />
        </mxCell>
        <mxCell id="chskgfsqUM1hCWHKNclf-4" value="&lt;p style=&quot;margin:0px;margin-top:4px;text-align:center;&quot;&gt;&lt;b&gt;ATMAction&lt;/b&gt;&lt;/p&gt;&lt;hr size=&quot;1&quot; style=&quot;border-style:solid;&quot;&gt;&lt;p style=&quot;margin:0px;margin-left:4px;&quot;&gt;-&lt;/p&gt;&lt;hr size=&quot;1&quot; style=&quot;border-style:solid;&quot;&gt;&lt;p style=&quot;margin:0px;margin-left:4px;&quot;&gt;+&amp;nbsp;&lt;span style=&quot;background-color: initial;&quot;&gt;checkBalance() : Void&amp;nbsp;&lt;/span&gt;&lt;/p&gt;&lt;p style=&quot;--tw-border-spacing-x: 0; --tw-border-spacing-y: 0; --tw-translate-x: 0; --tw-translate-y: 0; --tw-rotate: 0; --tw-skew-x: 0; --tw-skew-y: 0; --tw-scale-x: 1; --tw-scale-y: 1; --tw-pan-x: ; --tw-pan-y: ; --tw-pinch-zoom: ; --tw-scroll-snap-strictness: proximity; --tw-ordinal: ; --tw-slashed-zero: ; --tw-numeric-figure: ; --tw-numeric-spacing: ; --tw-numeric-fraction: ; --tw-ring-inset: ; --tw-ring-offset-width: 0px; --tw-ring-offset-color: #fff; --tw-ring-color: rgb(59 130 246 / .5); --tw-ring-offset-shadow: 0 0 #0000; --tw-ring-shadow: 0 0 #0000; --tw-shadow: 0 0 #0000; --tw-shadow-colored: 0 0 #0000; --tw-blur: ; --tw-brightness: ; --tw-contrast: ; --tw-grayscale: ; --tw-hue-rotate: ; --tw-invert: ; --tw-saturate: ; --tw-sepia: ; --tw-drop-shadow: ; --tw-backdrop-blur: ; --tw-backdrop-brightness: ; --tw-backdrop-contrast: ; --tw-backdrop-grayscale: ; --tw-backdrop-hue-rotate: ; --tw-backdrop-invert: ; --tw-backdrop-opacity: ; --tw-backdrop-saturate: ; --tw-backdrop-sepia: ; margin: 0px 0px 0px 4px;&quot;&gt;+ withdraw (double amount) : Void&lt;/p&gt;&lt;p style=&quot;--tw-border-spacing-x: 0; --tw-border-spacing-y: 0; --tw-translate-x: 0; --tw-translate-y: 0; --tw-rotate: 0; --tw-skew-x: 0; --tw-skew-y: 0; --tw-scale-x: 1; --tw-scale-y: 1; --tw-pan-x: ; --tw-pan-y: ; --tw-pinch-zoom: ; --tw-scroll-snap-strictness: proximity; --tw-ordinal: ; --tw-slashed-zero: ; --tw-numeric-figure: ; --tw-numeric-spacing: ; --tw-numeric-fraction: ; --tw-ring-inset: ; --tw-ring-offset-width: 0px; --tw-ring-offset-color: #fff; --tw-ring-color: rgb(59 130 246 / .5); --tw-ring-offset-shadow: 0 0 #0000; --tw-ring-shadow: 0 0 #0000; --tw-shadow: 0 0 #0000; --tw-shadow-colored: 0 0 #0000; --tw-blur: ; --tw-brightness: ; --tw-contrast: ; --tw-grayscale: ; --tw-hue-rotate: ; --tw-invert: ; --tw-saturate: ; --tw-sepia: ; --tw-drop-shadow: ; --tw-backdrop-blur: ; --tw-backdrop-brightness: ; --tw-backdrop-contrast: ; --tw-backdrop-grayscale: ; --tw-backdrop-hue-rotate: ; --tw-backdrop-invert: ; --tw-backdrop-opacity: ; --tw-backdrop-saturate: ; --tw-backdrop-sepia: ; margin: 0px 0px 0px 4px;&quot;&gt;+ deposit(double amount) : Void&lt;/p&gt;&lt;p style=&quot;--tw-border-spacing-x: 0; --tw-border-spacing-y: 0; --tw-translate-x: 0; --tw-translate-y: 0; --tw-rotate: 0; --tw-skew-x: 0; --tw-skew-y: 0; --tw-scale-x: 1; --tw-scale-y: 1; --tw-pan-x: ; --tw-pan-y: ; --tw-pinch-zoom: ; --tw-scroll-snap-strictness: proximity; --tw-ordinal: ; --tw-slashed-zero: ; --tw-numeric-figure: ; --tw-numeric-spacing: ; --tw-numeric-fraction: ; --tw-ring-inset: ; --tw-ring-offset-width: 0px; --tw-ring-offset-color: #fff; --tw-ring-color: rgb(59 130 246 / .5); --tw-ring-offset-shadow: 0 0 #0000; --tw-ring-shadow: 0 0 #0000; --tw-shadow: 0 0 #0000; --tw-shadow-colored: 0 0 #0000; --tw-blur: ; --tw-brightness: ; --tw-contrast: ; --tw-grayscale: ; --tw-hue-rotate: ; --tw-invert: ; --tw-saturate: ; --tw-sepia: ; --tw-drop-shadow: ; --tw-backdrop-blur: ; --tw-backdrop-brightness: ; --tw-backdrop-contrast: ; --tw-backdrop-grayscale: ; --tw-backdrop-hue-rotate: ; --tw-backdrop-invert: ; --tw-backdrop-opacity: ; --tw-backdrop-saturate: ; --tw-backdrop-sepia: ; margin: 0px 0px 0px 4px;&quot;&gt;+ transfer (Account target , double amount) : Void&lt;/p&gt;" style="verticalAlign=top;align=left;overflow=fill;html=1;whiteSpace=wrap;" vertex="1" parent="1">
          <mxGeometry x="250" y="1060" width="270" height="120" as="geometry" />
        </mxCell>
        <mxCell id="chskgfsqUM1hCWHKNclf-5" value="&lt;p style=&quot;margin:0px;margin-top:4px;text-align:center;&quot;&gt;&lt;b&gt;ATMSystem&lt;/b&gt;&lt;/p&gt;&lt;hr size=&quot;1&quot; style=&quot;border-style:solid;&quot;&gt;&lt;p style=&quot;margin:0px;margin-left:4px;&quot;&gt;+ manager : Manager&lt;/p&gt;&lt;p style=&quot;margin:0px;margin-left:4px;&quot;&gt;+&amp;nbsp;accounts: List&amp;lt;Account&amp;gt;&lt;/p&gt;&lt;p style=&quot;margin:0px;margin-left:4px;&quot;&gt;+ btcRate : double&lt;/p&gt;&lt;hr size=&quot;1&quot; style=&quot;border-style:solid;&quot;&gt;&lt;p style=&quot;margin:0px;margin-left:4px;&quot;&gt;+&amp;nbsp;main(String[] args): void&amp;nbsp;&lt;/p&gt;&lt;p style=&quot;margin:0px;margin-left:4px;&quot;&gt;&lt;br&gt;&lt;/p&gt;" style="verticalAlign=top;align=left;overflow=fill;html=1;whiteSpace=wrap;" vertex="1" parent="1">
          <mxGeometry x="540" y="900" width="160" height="120" as="geometry" />
        </mxCell>
        <mxCell id="chskgfsqUM1hCWHKNclf-6" value="" style="endArrow=block;dashed=1;endFill=0;endSize=12;html=1;rounded=0;exitX=0.631;exitY=0.996;exitDx=0;exitDy=0;entryX=0.5;entryY=0;entryDx=0;entryDy=0;exitPerimeter=0;" edge="1" parent="1">
          <mxGeometry width="160" relative="1" as="geometry">
            <mxPoint x="191.68000000000006" y="965.9999999999999" as="sourcePoint" />
            <mxPoint x="380" y="1060.68" as="targetPoint" />
          </mxGeometry>
        </mxCell>
        <mxCell id="chskgfsqUM1hCWHKNclf-7" value="" style="endArrow=classic;html=1;rounded=0;exitX=0;exitY=0.5;exitDx=0;exitDy=0;entryX=1.015;entryY=0.38;entryDx=0;entryDy=0;entryPerimeter=0;" edge="1" parent="1" source="chskgfsqUM1hCWHKNclf-2" target="chskgfsqUM1hCWHKNclf-1">
          <mxGeometry relative="1" as="geometry">
            <mxPoint x="560" y="780" as="sourcePoint" />
            <mxPoint x="660" y="780" as="targetPoint" />
          </mxGeometry>
        </mxCell>
        <mxCell id="chskgfsqUM1hCWHKNclf-8" value="extends" style="edgeLabel;resizable=0;html=1;;align=center;verticalAlign=middle;" connectable="0" vertex="1" parent="chskgfsqUM1hCWHKNclf-7">
          <mxGeometry relative="1" as="geometry" />
        </mxCell>
        <mxCell id="chskgfsqUM1hCWHKNclf-9" value="" style="endArrow=classic;html=1;rounded=0;exitX=1;exitY=0.5;exitDx=0;exitDy=0;entryX=0.343;entryY=1.009;entryDx=0;entryDy=0;entryPerimeter=0;" edge="1" parent="1" source="chskgfsqUM1hCWHKNclf-3" target="chskgfsqUM1hCWHKNclf-1">
          <mxGeometry relative="1" as="geometry">
            <mxPoint x="380" y="930" as="sourcePoint" />
            <mxPoint x="480" y="930" as="targetPoint" />
          </mxGeometry>
        </mxCell>
        <mxCell id="chskgfsqUM1hCWHKNclf-10" value="extends" style="edgeLabel;resizable=0;html=1;;align=center;verticalAlign=middle;" connectable="0" vertex="1" parent="chskgfsqUM1hCWHKNclf-9">
          <mxGeometry relative="1" as="geometry" />
        </mxCell>
        <mxCell id="chskgfsqUM1hCWHKNclf-11" value="" style="endArrow=classic;html=1;rounded=0;entryX=1.006;entryY=0.708;entryDx=0;entryDy=0;entryPerimeter=0;exitX=0.021;exitY=0.348;exitDx=0;exitDy=0;exitPerimeter=0;" edge="1" parent="1" source="chskgfsqUM1hCWHKNclf-5" target="chskgfsqUM1hCWHKNclf-3">
          <mxGeometry relative="1" as="geometry">
            <mxPoint x="390" y="950" as="sourcePoint" />
            <mxPoint x="490" y="950" as="targetPoint" />
          </mxGeometry>
        </mxCell>
        <mxCell id="chskgfsqUM1hCWHKNclf-12" value="*" style="edgeLabel;resizable=0;html=1;;align=center;verticalAlign=middle;fontSize=22;" connectable="0" vertex="1" parent="chskgfsqUM1hCWHKNclf-11">
          <mxGeometry relative="1" as="geometry">
            <mxPoint x="-98" y="-9" as="offset" />
          </mxGeometry>
        </mxCell>
        <mxCell id="chskgfsqUM1hCWHKNclf-13" value="" style="endArrow=classic;html=1;rounded=0;entryX=0.383;entryY=1;entryDx=0;entryDy=0;entryPerimeter=0;" edge="1" parent="1" target="chskgfsqUM1hCWHKNclf-2">
          <mxGeometry relative="1" as="geometry">
            <mxPoint x="700" y="910" as="sourcePoint" />
            <mxPoint x="800" y="910" as="targetPoint" />
          </mxGeometry>
        </mxCell>
        <mxCell id="chskgfsqUM1hCWHKNclf-14" value="manager" style="edgeLabel;resizable=0;html=1;;align=center;verticalAlign=middle;" connectable="0" vertex="1" parent="chskgfsqUM1hCWHKNclf-13">
          <mxGeometry relative="1" as="geometry" />
        </mxCell>
        <mxCell id="chskgfsqUM1hCWHKNclf-15" value="implements" style="text;html=1;align=center;verticalAlign=middle;whiteSpace=wrap;rounded=0;" vertex="1" parent="1">
          <mxGeometry x="295" y="980.68" width="60" height="30" as="geometry" />
        </mxCell>
        <mxCell id="chskgfsqUM1hCWHKNclf-16" value="ATM RMUTT" style="swimlane;whiteSpace=wrap;html=1;" vertex="1" parent="1">
          <mxGeometry x="60" y="110" width="760" height="430" as="geometry" />
        </mxCell>
        <mxCell id="chskgfsqUM1hCWHKNclf-17" value="checkBalance" style="ellipse;whiteSpace=wrap;html=1;" vertex="1" parent="chskgfsqUM1hCWHKNclf-16">
          <mxGeometry x="46" y="60" width="120" height="30" as="geometry" />
        </mxCell>
        <mxCell id="chskgfsqUM1hCWHKNclf-18" value="withdraw" style="ellipse;whiteSpace=wrap;html=1;" vertex="1" parent="chskgfsqUM1hCWHKNclf-16">
          <mxGeometry x="46" y="100" width="120" height="30" as="geometry" />
        </mxCell>
        <mxCell id="chskgfsqUM1hCWHKNclf-19" value="deposit" style="ellipse;whiteSpace=wrap;html=1;" vertex="1" parent="chskgfsqUM1hCWHKNclf-16">
          <mxGeometry x="46" y="140" width="120" height="30" as="geometry" />
        </mxCell>
        <mxCell id="chskgfsqUM1hCWHKNclf-20" value="transfer" style="ellipse;whiteSpace=wrap;html=1;" vertex="1" parent="chskgfsqUM1hCWHKNclf-16">
          <mxGeometry x="46" y="180" width="120" height="30" as="geometry" />
        </mxCell>
        <mxCell id="chskgfsqUM1hCWHKNclf-21" value="login" style="ellipse;whiteSpace=wrap;html=1;" vertex="1" parent="chskgfsqUM1hCWHKNclf-16">
          <mxGeometry x="340" y="240" width="120" height="30" as="geometry" />
        </mxCell>
        <mxCell id="chskgfsqUM1hCWHKNclf-22" value="handle invalid account and password" style="ellipse;whiteSpace=wrap;html=1;" vertex="1" parent="chskgfsqUM1hCWHKNclf-16">
          <mxGeometry x="570" y="235" width="184" height="40" as="geometry" />
        </mxCell>
        <mxCell id="chskgfsqUM1hCWHKNclf-23" value="addAccount" style="ellipse;whiteSpace=wrap;html=1;" vertex="1" parent="chskgfsqUM1hCWHKNclf-16">
          <mxGeometry x="56" y="310" width="120" height="30" as="geometry" />
        </mxCell>
        <mxCell id="chskgfsqUM1hCWHKNclf-24" value="checkAccount" style="ellipse;whiteSpace=wrap;html=1;" vertex="1" parent="chskgfsqUM1hCWHKNclf-16">
          <mxGeometry x="56" y="360" width="120" height="30" as="geometry" />
        </mxCell>
        <mxCell id="chskgfsqUM1hCWHKNclf-25" value="&amp;lt;&amp;lt;include&amp;gt;&amp;gt;" style="endArrow=open;endSize=12;dashed=1;html=1;rounded=0;entryX=0;entryY=0.5;entryDx=0;entryDy=0;exitX=1;exitY=0.5;exitDx=0;exitDy=0;" edge="1" parent="chskgfsqUM1hCWHKNclf-16" source="chskgfsqUM1hCWHKNclf-17" target="chskgfsqUM1hCWHKNclf-21">
          <mxGeometry x="-0.5819" width="160" relative="1" as="geometry">
            <mxPoint x="140" y="250" as="sourcePoint" />
            <mxPoint x="234" y="280" as="targetPoint" />
            <Array as="points">
              <mxPoint x="310" y="75" />
              <mxPoint x="310" y="255" />
            </Array>
            <mxPoint as="offset" />
          </mxGeometry>
        </mxCell>
        <mxCell id="chskgfsqUM1hCWHKNclf-26" value="&amp;lt;&amp;lt;include&amp;gt;&amp;gt;" style="endArrow=open;endSize=12;dashed=1;html=1;rounded=0;exitX=1;exitY=0.5;exitDx=0;exitDy=0;entryX=0;entryY=0.5;entryDx=0;entryDy=0;" edge="1" parent="chskgfsqUM1hCWHKNclf-16" source="chskgfsqUM1hCWHKNclf-18" target="chskgfsqUM1hCWHKNclf-21">
          <mxGeometry x="-0.4933" width="160" relative="1" as="geometry">
            <mxPoint x="234" y="280" as="sourcePoint" />
            <mxPoint x="340" y="260" as="targetPoint" />
            <Array as="points">
              <mxPoint x="310" y="115" />
              <mxPoint x="310" y="255" />
            </Array>
            <mxPoint as="offset" />
          </mxGeometry>
        </mxCell>
        <mxCell id="chskgfsqUM1hCWHKNclf-27" value="&amp;lt;&amp;lt;include&amp;gt;&amp;gt;" style="endArrow=open;endSize=12;dashed=1;html=1;rounded=0;exitX=1;exitY=0.5;exitDx=0;exitDy=0;" edge="1" parent="chskgfsqUM1hCWHKNclf-16" source="chskgfsqUM1hCWHKNclf-19">
          <mxGeometry x="-0.4599" width="160" relative="1" as="geometry">
            <mxPoint x="140" y="254.67000000000002" as="sourcePoint" />
            <mxPoint x="340" y="255" as="targetPoint" />
            <Array as="points">
              <mxPoint x="310" y="155" />
              <mxPoint x="310" y="255" />
            </Array>
            <mxPoint as="offset" />
          </mxGeometry>
        </mxCell>
        <mxCell id="chskgfsqUM1hCWHKNclf-28" value="&amp;lt;&amp;lt;include&amp;gt;&amp;gt;" style="endArrow=open;endSize=12;dashed=1;html=1;rounded=0;exitX=1;exitY=0.5;exitDx=0;exitDy=0;entryX=0;entryY=0.5;entryDx=0;entryDy=0;" edge="1" parent="chskgfsqUM1hCWHKNclf-16" source="chskgfsqUM1hCWHKNclf-20" target="chskgfsqUM1hCWHKNclf-21">
          <mxGeometry x="-0.3675" width="160" relative="1" as="geometry">
            <mxPoint x="274" y="320" as="sourcePoint" />
            <mxPoint x="340" y="260" as="targetPoint" />
            <Array as="points">
              <mxPoint x="310" y="195" />
              <mxPoint x="310" y="255" />
            </Array>
            <mxPoint as="offset" />
          </mxGeometry>
        </mxCell>
        <mxCell id="chskgfsqUM1hCWHKNclf-29" value="&amp;lt;&amp;lt;include&amp;gt;&amp;gt;" style="endArrow=open;endSize=12;dashed=1;html=1;rounded=0;exitX=1;exitY=0.5;exitDx=0;exitDy=0;entryX=0;entryY=0.5;entryDx=0;entryDy=0;" edge="1" parent="chskgfsqUM1hCWHKNclf-16" source="chskgfsqUM1hCWHKNclf-23" target="chskgfsqUM1hCWHKNclf-21">
          <mxGeometry x="-0.453" width="160" relative="1" as="geometry">
            <mxPoint x="284" y="330" as="sourcePoint" />
            <mxPoint x="444" y="330" as="targetPoint" />
            <Array as="points">
              <mxPoint x="310" y="325" />
              <mxPoint x="310" y="255" />
            </Array>
            <mxPoint as="offset" />
          </mxGeometry>
        </mxCell>
        <mxCell id="chskgfsqUM1hCWHKNclf-30" value="&amp;lt;&amp;lt;include&amp;gt;&amp;gt;" style="endArrow=open;endSize=12;dashed=1;html=1;rounded=0;exitX=1;exitY=0.5;exitDx=0;exitDy=0;entryX=0;entryY=0.5;entryDx=0;entryDy=0;" edge="1" parent="chskgfsqUM1hCWHKNclf-16" source="chskgfsqUM1hCWHKNclf-24" target="chskgfsqUM1hCWHKNclf-21">
          <mxGeometry x="-0.5493" width="160" relative="1" as="geometry">
            <mxPoint x="294" y="340" as="sourcePoint" />
            <mxPoint x="340" y="250" as="targetPoint" />
            <Array as="points">
              <mxPoint x="310" y="375" />
              <mxPoint x="310" y="255" />
            </Array>
            <mxPoint as="offset" />
          </mxGeometry>
        </mxCell>
        <mxCell id="chskgfsqUM1hCWHKNclf-31" value="extend" style="endArrow=open;endSize=12;dashed=1;html=1;rounded=0;exitX=0;exitY=0.5;exitDx=0;exitDy=0;entryX=1;entryY=0.5;entryDx=0;entryDy=0;" edge="1" parent="chskgfsqUM1hCWHKNclf-16" source="chskgfsqUM1hCWHKNclf-22" target="chskgfsqUM1hCWHKNclf-21">
          <mxGeometry width="160" relative="1" as="geometry">
            <mxPoint x="304" y="350" as="sourcePoint" />
            <mxPoint x="464" y="350" as="targetPoint" />
          </mxGeometry>
        </mxCell>
        <mxCell id="chskgfsqUM1hCWHKNclf-32" value="User" style="shape=umlActor;verticalLabelPosition=bottom;verticalAlign=top;html=1;outlineConnect=0;" vertex="1" parent="1">
          <mxGeometry x="10" y="190" width="30" height="60" as="geometry" />
        </mxCell>
        <mxCell id="chskgfsqUM1hCWHKNclf-33" value="Manager" style="shape=umlActor;verticalLabelPosition=bottom;verticalAlign=top;html=1;outlineConnect=0;" vertex="1" parent="1">
          <mxGeometry x="10" y="410" width="30" height="60" as="geometry" />
        </mxCell>
        <mxCell id="chskgfsqUM1hCWHKNclf-34" value="" style="endArrow=none;html=1;rounded=0;exitX=1;exitY=0.3333333333333333;exitDx=0;exitDy=0;exitPerimeter=0;entryX=0;entryY=0.5;entryDx=0;entryDy=0;" edge="1" parent="1" source="chskgfsqUM1hCWHKNclf-32" target="chskgfsqUM1hCWHKNclf-17">
          <mxGeometry width="50" height="50" relative="1" as="geometry">
            <mxPoint x="130" y="310" as="sourcePoint" />
            <mxPoint x="180" y="260" as="targetPoint" />
          </mxGeometry>
        </mxCell>
        <mxCell id="chskgfsqUM1hCWHKNclf-35" value="" style="endArrow=none;html=1;rounded=0;exitX=1;exitY=0.3333333333333333;exitDx=0;exitDy=0;exitPerimeter=0;entryX=0;entryY=0.5;entryDx=0;entryDy=0;" edge="1" parent="1" source="chskgfsqUM1hCWHKNclf-32" target="chskgfsqUM1hCWHKNclf-18">
          <mxGeometry width="50" height="50" relative="1" as="geometry">
            <mxPoint x="50" y="220" as="sourcePoint" />
            <mxPoint x="116" y="195" as="targetPoint" />
          </mxGeometry>
        </mxCell>
        <mxCell id="chskgfsqUM1hCWHKNclf-36" value="" style="endArrow=none;html=1;rounded=0;exitX=1;exitY=0.3333333333333333;exitDx=0;exitDy=0;exitPerimeter=0;entryX=0;entryY=0.5;entryDx=0;entryDy=0;" edge="1" parent="1" source="chskgfsqUM1hCWHKNclf-32" target="chskgfsqUM1hCWHKNclf-19">
          <mxGeometry width="50" height="50" relative="1" as="geometry">
            <mxPoint x="60" y="230" as="sourcePoint" />
            <mxPoint x="126" y="205" as="targetPoint" />
          </mxGeometry>
        </mxCell>
        <mxCell id="chskgfsqUM1hCWHKNclf-37" value="" style="endArrow=none;html=1;rounded=0;exitX=1;exitY=0.3333333333333333;exitDx=0;exitDy=0;exitPerimeter=0;entryX=0;entryY=0.5;entryDx=0;entryDy=0;" edge="1" parent="1" source="chskgfsqUM1hCWHKNclf-32" target="chskgfsqUM1hCWHKNclf-20">
          <mxGeometry width="50" height="50" relative="1" as="geometry">
            <mxPoint x="70" y="240" as="sourcePoint" />
            <mxPoint x="136" y="215" as="targetPoint" />
          </mxGeometry>
        </mxCell>
        <mxCell id="chskgfsqUM1hCWHKNclf-38" value="" style="endArrow=none;html=1;rounded=0;exitX=1;exitY=0.3333333333333333;exitDx=0;exitDy=0;exitPerimeter=0;entryX=0;entryY=0.5;entryDx=0;entryDy=0;" edge="1" parent="1" source="chskgfsqUM1hCWHKNclf-33" target="chskgfsqUM1hCWHKNclf-24">
          <mxGeometry width="50" height="50" relative="1" as="geometry">
            <mxPoint x="80" y="250" as="sourcePoint" />
            <mxPoint x="146" y="225" as="targetPoint" />
          </mxGeometry>
        </mxCell>
        <mxCell id="chskgfsqUM1hCWHKNclf-39" value="" style="endArrow=none;html=1;rounded=0;exitX=1;exitY=0.3333333333333333;exitDx=0;exitDy=0;exitPerimeter=0;entryX=0;entryY=0.5;entryDx=0;entryDy=0;" edge="1" parent="1" source="chskgfsqUM1hCWHKNclf-33" target="chskgfsqUM1hCWHKNclf-23">
          <mxGeometry width="50" height="50" relative="1" as="geometry">
            <mxPoint x="90" y="260" as="sourcePoint" />
            <mxPoint x="156" y="235" as="targetPoint" />
          </mxGeometry>
        </mxCell>
        <mxCell id="chskgfsqUM1hCWHKNclf-40" value="Use Case" style="text;html=1;align=center;verticalAlign=middle;resizable=0;points=[];autosize=1;strokeColor=none;fillColor=none;fontSize=39;" vertex="1" parent="1">
          <mxGeometry x="325" y="35" width="190" height="60" as="geometry" />
        </mxCell>
        <mxCell id="chskgfsqUM1hCWHKNclf-42" value="นาย สุพัฒชัย นาคย้อย 116510462044-8" style="text;html=1;align=center;verticalAlign=middle;resizable=0;points=[];autosize=1;strokeColor=none;fillColor=none;" vertex="1" parent="1">
          <mxGeometry x="590" y="10" width="230" height="30" as="geometry" />
        </mxCell>
        <mxCell id="chskgfsqUM1hCWHKNclf-43" value="&lt;font style=&quot;font-size: 33px;&quot;&gt;Class Diagram&lt;/font&gt;" style="text;html=1;align=center;verticalAlign=middle;resizable=0;points=[];autosize=1;strokeColor=none;fillColor=none;" vertex="1" parent="1">
          <mxGeometry x="330" y="630" width="240" height="50" as="geometry" />
        </mxCell>
        <mxCell id="chskgfsqUM1hCWHKNclf-44" value="Sequence Diagram การกําหนดอัตราแลกเปลี่ยนเงินระหว่าง THB และ BTC" style="text;whiteSpace=wrap;fontSize=22;" vertex="1" parent="1">
          <mxGeometry x="95" y="1240" width="690" height="40" as="geometry" />
        </mxCell>
        <mxCell id="chskgfsqUM1hCWHKNclf-45" value="Person" style="shape=umlActor;verticalLabelPosition=bottom;verticalAlign=top;html=1;" vertex="1" parent="1">
          <mxGeometry x="80" y="1320" width="30" height="60" as="geometry" />
        </mxCell>
        <mxCell id="chskgfsqUM1hCWHKNclf-46" value="" style="endArrow=none;dashed=1;html=1;rounded=0;" edge="1" parent="1" source="chskgfsqUM1hCWHKNclf-61">
          <mxGeometry width="50" height="50" relative="1" as="geometry">
            <mxPoint x="95" y="1680" as="sourcePoint" />
            <mxPoint x="95" y="1380" as="targetPoint" />
          </mxGeometry>
        </mxCell>
        <mxCell id="chskgfsqUM1hCWHKNclf-48" value="ATMSystem" style="shape=umlLifeline;perimeter=lifelinePerimeter;whiteSpace=wrap;html=1;container=1;dropTarget=0;collapsible=0;recursiveResize=0;outlineConnect=0;portConstraint=eastwest;newEdgeStyle={&quot;curved&quot;:0,&quot;rounded&quot;:0};" vertex="1" parent="1">
          <mxGeometry x="330" y="1320" width="100" height="360" as="geometry" />
        </mxCell>
        <mxCell id="chskgfsqUM1hCWHKNclf-63" value="" style="html=1;points=[[0,0,0,0,5],[0,1,0,0,-5],[1,0,0,0,5],[1,1,0,0,-5]];perimeter=orthogonalPerimeter;outlineConnect=0;targetShapes=umlLifeline;portConstraint=eastwest;newEdgeStyle={&quot;curved&quot;:0,&quot;rounded&quot;:0};" vertex="1" parent="chskgfsqUM1hCWHKNclf-48">
          <mxGeometry x="45" y="110" width="10" height="200" as="geometry" />
        </mxCell>
        <mxCell id="chskgfsqUM1hCWHKNclf-49" value="btcRate" style="shape=umlLifeline;perimeter=lifelinePerimeter;whiteSpace=wrap;html=1;container=1;dropTarget=0;collapsible=0;recursiveResize=0;outlineConnect=0;portConstraint=eastwest;newEdgeStyle={&quot;curved&quot;:0,&quot;rounded&quot;:0};" vertex="1" parent="1">
          <mxGeometry x="650" y="1320" width="100" height="360" as="geometry" />
        </mxCell>
        <mxCell id="chskgfsqUM1hCWHKNclf-64" value="" style="html=1;points=[[0,0,0,0,5],[0,1,0,0,-5],[1,0,0,0,5],[1,1,0,0,-5]];perimeter=orthogonalPerimeter;outlineConnect=0;targetShapes=umlLifeline;portConstraint=eastwest;newEdgeStyle={&quot;curved&quot;:0,&quot;rounded&quot;:0};" vertex="1" parent="chskgfsqUM1hCWHKNclf-49">
          <mxGeometry x="45" y="188" width="10" height="80" as="geometry" />
        </mxCell>
        <mxCell id="chskgfsqUM1hCWHKNclf-50" value="" style="endArrow=open;endFill=1;endSize=12;html=1;rounded=0;" edge="1" parent="1" source="chskgfsqUM1hCWHKNclf-63">
          <mxGeometry width="160" relative="1" as="geometry">
            <mxPoint x="370" y="1440" as="sourcePoint" />
            <mxPoint x="100" y="1440" as="targetPoint" />
          </mxGeometry>
        </mxCell>
        <mxCell id="chskgfsqUM1hCWHKNclf-51" value="ร้องขออัตราการแลกเปลี่ยนค่าเงิน BTC" style="text;html=1;align=center;verticalAlign=middle;resizable=0;points=[];autosize=1;strokeColor=none;fillColor=none;" vertex="1" parent="1">
          <mxGeometry x="135" y="1410" width="210" height="30" as="geometry" />
        </mxCell>
        <mxCell id="chskgfsqUM1hCWHKNclf-52" value="" style="endArrow=open;endFill=1;endSize=12;html=1;rounded=0;" edge="1" parent="1" target="chskgfsqUM1hCWHKNclf-63">
          <mxGeometry width="160" relative="1" as="geometry">
            <mxPoint x="100" y="1480" as="sourcePoint" />
            <mxPoint x="370" y="1480" as="targetPoint" />
          </mxGeometry>
        </mxCell>
        <mxCell id="chskgfsqUM1hCWHKNclf-53" value="ใส่ค่าอัตราแลกเปลี่ยนเงิน" style="text;html=1;align=center;verticalAlign=middle;resizable=0;points=[];autosize=1;strokeColor=none;fillColor=none;" vertex="1" parent="1">
          <mxGeometry x="155" y="1455" width="150" height="30" as="geometry" />
        </mxCell>
        <mxCell id="chskgfsqUM1hCWHKNclf-54" value="" style="endArrow=open;endFill=1;endSize=12;html=1;rounded=0;" edge="1" parent="1">
          <mxGeometry width="160" relative="1" as="geometry">
            <mxPoint x="385" y="1520.0000000000002" as="sourcePoint" />
            <mxPoint x="695" y="1520.0000000000002" as="targetPoint" />
          </mxGeometry>
        </mxCell>
        <mxCell id="chskgfsqUM1hCWHKNclf-55" value="Set อัตราค่าเงินแลกเปลี่ยน BTC&amp;nbsp;" style="text;html=1;align=center;verticalAlign=middle;resizable=0;points=[];autosize=1;strokeColor=none;fillColor=none;" vertex="1" parent="1">
          <mxGeometry x="450" y="1500" width="190" height="30" as="geometry" />
        </mxCell>
        <mxCell id="chskgfsqUM1hCWHKNclf-57" value="" style="endArrow=open;endFill=1;endSize=12;html=1;rounded=0;dashed=1;exitX=0;exitY=1;exitDx=0;exitDy=-5;exitPerimeter=0;" edge="1" parent="1" source="chskgfsqUM1hCWHKNclf-64" target="chskgfsqUM1hCWHKNclf-63">
          <mxGeometry width="160" relative="1" as="geometry">
            <mxPoint x="690" y="1580" as="sourcePoint" />
            <mxPoint x="400" y="1580" as="targetPoint" />
          </mxGeometry>
        </mxCell>
        <mxCell id="chskgfsqUM1hCWHKNclf-58" value="Return ค่าอัตราเงินแลกเปลี่ยน BTC" style="text;html=1;align=center;verticalAlign=middle;resizable=0;points=[];autosize=1;strokeColor=none;fillColor=none;" vertex="1" parent="1">
          <mxGeometry x="440" y="1558" width="200" height="30" as="geometry" />
        </mxCell>
        <mxCell id="chskgfsqUM1hCWHKNclf-59" value="" style="endArrow=open;endFill=1;endSize=12;html=1;rounded=0;dashed=1;" edge="1" parent="1" source="chskgfsqUM1hCWHKNclf-63">
          <mxGeometry width="160" relative="1" as="geometry">
            <mxPoint x="370" y="1620" as="sourcePoint" />
            <mxPoint x="100.5" y="1620" as="targetPoint" />
          </mxGeometry>
        </mxCell>
        <mxCell id="chskgfsqUM1hCWHKNclf-60" value="Return ค่าเงิน BTC&amp;nbsp;" style="text;html=1;align=center;verticalAlign=middle;resizable=0;points=[];autosize=1;strokeColor=none;fillColor=none;" vertex="1" parent="1">
          <mxGeometry x="180" y="1588" width="120" height="30" as="geometry" />
        </mxCell>
        <mxCell id="chskgfsqUM1hCWHKNclf-62" value="" style="endArrow=none;dashed=1;html=1;rounded=0;" edge="1" parent="1" target="chskgfsqUM1hCWHKNclf-61">
          <mxGeometry width="50" height="50" relative="1" as="geometry">
            <mxPoint x="95" y="1680" as="sourcePoint" />
            <mxPoint x="95" y="1380" as="targetPoint" />
          </mxGeometry>
        </mxCell>
        <mxCell id="chskgfsqUM1hCWHKNclf-61" value="" style="html=1;points=[[0,0,0,0,5],[0,1,0,0,-5],[1,0,0,0,5],[1,1,0,0,-5]];perimeter=orthogonalPerimeter;outlineConnect=0;targetShapes=umlLifeline;portConstraint=eastwest;newEdgeStyle={&quot;curved&quot;:0,&quot;rounded&quot;:0};" vertex="1" parent="1">
          <mxGeometry x="90" y="1430" width="10" height="230" as="geometry" />
        </mxCell>
        <mxCell id="chskgfsqUM1hCWHKNclf-65" value="" style="shape=umlDestroy;whiteSpace=wrap;html=1;strokeWidth=3;targetShapes=umlLifeline;" vertex="1" parent="1">
          <mxGeometry x="80" y="1670" width="30" height="30" as="geometry" />
        </mxCell>
        <mxCell id="chskgfsqUM1hCWHKNclf-66" value="" style="shape=umlDestroy;whiteSpace=wrap;html=1;strokeWidth=3;targetShapes=umlLifeline;" vertex="1" parent="1">
          <mxGeometry x="365" y="1670" width="30" height="30" as="geometry" />
        </mxCell>
        <mxCell id="chskgfsqUM1hCWHKNclf-67" value="" style="shape=umlDestroy;whiteSpace=wrap;html=1;strokeWidth=3;targetShapes=umlLifeline;" vertex="1" parent="1">
          <mxGeometry x="685" y="1670" width="30" height="30" as="geometry" />
        </mxCell>
        <mxCell id="chskgfsqUM1hCWHKNclf-68" value="Sequence Diagram การตรวจสอบยอดเงิน THB และ BTC" style="text;whiteSpace=wrap;fontSize=25;" vertex="1" parent="1">
          <mxGeometry x="96" y="1760" width="636" height="40" as="geometry" />
        </mxCell>
        <mxCell id="chskgfsqUM1hCWHKNclf-70" value="User" style="shape=umlActor;verticalLabelPosition=bottom;verticalAlign=top;html=1;" vertex="1" parent="1">
          <mxGeometry x="80" y="1840" width="30" height="60" as="geometry" />
        </mxCell>
        <mxCell id="chskgfsqUM1hCWHKNclf-71" value="" style="endArrow=none;dashed=1;html=1;rounded=0;" edge="1" parent="1" target="chskgfsqUM1hCWHKNclf-70">
          <mxGeometry width="50" height="50" relative="1" as="geometry">
            <mxPoint x="95" y="2120" as="sourcePoint" />
            <mxPoint x="310" y="1870" as="targetPoint" />
          </mxGeometry>
        </mxCell>
      </root>
    </mxGraphModel>
  </diagram>
</mxfile>
